<?xml version="1.0" encoding="UTF-8"?>
<!DOCTYPE svg PUBLIC "-//W3C//DTD SVG 1.1//EN" "http://www.w3.org/Graphics/SVG/1.1/DTD/svg11.dtd">
<svg xmlns="http://www.w3.org/2000/svg" version="1.1" width="289px" height="241px" style="shape-rendering:geometricPrecision; text-rendering:geometricPrecision; image-rendering:optimizeQuality; fill-rule:evenodd; clip-rule:evenodd" xmlns:xlink="http://www.w3.org/1999/xlink">
<g><path style="opacity:1" fill="#196a32" d="M -0.5,-0.5 C 95.8333,-0.5 192.167,-0.5 288.5,-0.5C 288.5,40.1667 288.5,80.8333 288.5,121.5C 248.5,121.5 208.5,121.5 168.5,121.5C 168.5,124.5 168.5,127.5 168.5,130.5C 164.55,137.467 164.55,144.467 168.5,151.5C 168.5,162.5 168.5,173.5 168.5,184.5C 208.5,184.5 248.5,184.5 288.5,184.5C 288.5,203.167 288.5,221.833 288.5,240.5C 192.167,240.5 95.8333,240.5 -0.5,240.5C -0.5,160.167 -0.5,79.8333 -0.5,-0.5 Z"/></g>
<g><path style="opacity:1" fill="#f6f7f5" d="M 80.5,154.5 C 80.6968,159.32 80.6968,164.32 80.5,169.5C 80.5,169.833 80.5,170.167 80.5,170.5C 79.8333,170.833 79.1667,171.167 78.5,171.5C 77.1667,171.5 75.8333,171.5 74.5,171.5C 75.0356,174.698 74.369,177.365 72.5,179.5C 45.5726,163.321 33.0726,139.321 35,107.5C 40.1489,76.691 57.3156,55.8576 86.5,45C 113.533,38.2514 137.7,43.7514 159,61.5C 154.205,68.4751 148.372,74.8084 141.5,80.5C 123.135,65.3103 103.468,63.4769 82.5,75C 59.53,93.7247 55.03,116.225 69,142.5C 72.3358,147.002 76.1691,151.002 80.5,154.5 Z"/></g>
<g><path style="opacity:1" fill="#eaefe8" d="M 234.5,88.5 C 239.339,88.2217 244.006,88.8884 248.5,90.5C 248.714,92.1439 248.38,93.6439 247.5,95C 244.436,95.1488 241.436,94.6488 238.5,93.5C 234.174,93.9781 233.507,95.8114 236.5,99C 240.839,100.24 244.839,102.073 248.5,104.5C 250.719,110.464 248.719,114.298 242.5,116C 236.765,117.29 231.598,116.123 227,112.5C 226.493,111.004 226.993,109.837 228.5,109C 231.372,109.981 234.372,110.814 237.5,111.5C 241.92,112.091 243.253,110.424 241.5,106.5C 236.998,105.016 232.832,103.016 229,100.5C 227.039,94.5773 228.872,90.5773 234.5,88.5 Z"/></g>
<g><path style="opacity:1" fill="#e9eee6" d="M 181.5,88.5 C 187.339,87.5228 192.339,89.0228 196.5,93C 195.401,96.5539 193.401,97.2206 190.5,95C 181.333,93.5 177.5,97.3333 179,106.5C 183.08,112.415 187.914,113.082 193.5,108.5C 195.475,109.275 196.309,110.609 196,112.5C 190.209,117.18 184.042,117.68 177.5,114C 171.896,107.803 171.063,100.969 175,93.5C 177.326,91.9343 179.492,90.2676 181.5,88.5 Z"/></g>
<g><path style="opacity:1" fill="#e8ede6" d="M 207.5,88.5 C 212.672,88.1825 217.672,88.8492 222.5,90.5C 222.714,92.1439 222.38,93.6439 221.5,95C 218.28,95.1575 215.113,94.6575 212,93.5C 208.065,94.3106 207.565,96.144 210.5,99C 214.644,100.266 218.477,102.099 222,104.5C 224.376,110.251 222.543,114.084 216.5,116C 211.625,116.807 206.958,116.141 202.5,114C 199.908,111.989 200.075,110.156 203,108.5C 206.791,111.09 210.958,111.924 215.5,111C 216.022,110.439 216.355,109.772 216.5,109C 213.885,105.329 210.218,103.329 205.5,103C 199.749,97.2599 200.415,92.4265 207.5,88.5 Z"/></g>
<g><path style="opacity:1" fill="#206b33" d="M 288.5,121.5 C 288.5,142.5 288.5,163.5 288.5,184.5C 248.5,184.5 208.5,184.5 168.5,184.5C 168.5,173.5 168.5,162.5 168.5,151.5C 170.756,152.923 173.256,153.59 176,153.5C 180.117,152.618 184.284,152.618 188.5,153.5C 188.5,148.5 188.5,143.5 188.5,138.5C 184.5,138.5 180.5,138.5 176.5,138.5C 176.5,140.167 176.5,141.833 176.5,143.5C 178.5,143.5 180.5,143.5 182.5,143.5C 182.055,148.722 179.389,150.389 174.5,148.5C 170.545,143.298 170.545,138.131 174.5,133C 178.697,132.511 182.697,132.845 186.5,134C 187.86,132.062 187.527,130.396 185.5,129C 179.47,126.604 173.803,127.104 168.5,130.5C 168.5,127.5 168.5,124.5 168.5,121.5C 208.5,121.5 248.5,121.5 288.5,121.5 Z"/></g>
<g><path style="opacity:1" fill="#eaf0eb" d="M 168.5,151.5 C 164.55,144.467 164.55,137.467 168.5,130.5C 173.803,127.104 179.47,126.604 185.5,129C 187.527,130.396 187.86,132.062 186.5,134C 182.697,132.845 178.697,132.511 174.5,133C 170.545,138.131 170.545,143.298 174.5,148.5C 179.389,150.389 182.055,148.722 182.5,143.5C 180.5,143.5 178.5,143.5 176.5,143.5C 176.5,141.833 176.5,140.167 176.5,138.5C 180.5,138.5 184.5,138.5 188.5,138.5C 188.5,143.5 188.5,148.5 188.5,153.5C 184.284,152.618 180.117,152.618 176,153.5C 173.256,153.59 170.756,152.923 168.5,151.5 Z"/></g>
<g><path style="opacity:1" fill="#e6ede7" d="M 192.5,133.5 C 196.833,134.833 201.167,134.833 205.5,133.5C 205.5,135.167 205.5,136.833 205.5,138.5C 203.208,138.244 201.041,138.577 199,139.5C 198.501,144.155 198.334,148.821 198.5,153.5C 196.5,153.5 194.5,153.5 192.5,153.5C 192.5,146.833 192.5,140.167 192.5,133.5 Z"/></g>
<g><path style="opacity:1" fill="#edf2ee" d="M 211.5,133.5 C 222.49,131.992 227.324,136.658 226,147.5C 222.723,153.109 217.89,154.942 211.5,153C 204.857,146.428 204.857,139.928 211.5,133.5 Z"/></g>
<g><path style="opacity:1" fill="#ebf0ed" d="M 229.5,133.5 C 231.5,133.5 233.5,133.5 235.5,133.5C 235.334,138.511 235.501,143.511 236,148.5C 237.938,149.86 239.604,149.527 241,147.5C 241.499,142.845 241.666,138.179 241.5,133.5C 243.5,133.5 245.5,133.5 247.5,133.5C 247.5,140.167 247.5,146.833 247.5,153.5C 245.833,153.5 244.167,153.5 242.5,153.5C 242.557,149.867 241.557,149.7 239.5,153C 236.331,153.978 233.497,153.478 231,151.5C 229.59,145.621 229.09,139.621 229.5,133.5 Z"/></g>
<g><path style="opacity:1" fill="#edf2ee" d="M 252.5,133.5 C 257.462,134.36 262.462,134.527 267.5,134C 268.667,135.167 269.833,136.333 271,137.5C 271.867,141.956 271.534,146.289 270,150.5C 266.83,153.607 263.163,154.274 259,152.5C 258.502,155.482 258.335,158.482 258.5,161.5C 256.5,161.5 254.5,161.5 252.5,161.5C 252.5,152.167 252.5,142.833 252.5,133.5 Z"/></g>
<g><path style="opacity:1" fill="#327641" d="M 214.5,137.5 C 220.095,138.56 221.929,141.893 220,147.5C 217.577,149.994 215.244,149.994 213,147.5C 212.037,143.851 212.537,140.518 214.5,137.5 Z"/></g>
<g><path style="opacity:1" fill="#30743f" d="M 259.5,138.5 C 265.499,138.002 267.666,140.669 266,146.5C 263.966,149.859 261.632,150.192 259,147.5C 258.264,144.408 258.431,141.408 259.5,138.5 Z"/></g>
<g><path style="opacity:1" fill="#135112" d="M 107.5,127.5 C 107.5,148.167 107.5,168.833 107.5,189.5C 104.833,189.5 102.167,189.5 99.5,189.5C 99.4176,178.351 98.2509,167.351 96,156.5C 95.124,154.242 93.9573,152.242 92.5,150.5C 92.1604,146.869 92.9937,143.536 95,140.5C 98.6695,135.664 102.836,131.331 107.5,127.5 Z"/></g>
<g><path style="opacity:1" fill="#519862" d="M 107.5,127.5 C 108.492,127.328 109.158,127.662 109.5,128.5C 108.503,148.326 108.17,168.326 108.5,188.5C 110.5,188.5 112.5,188.5 114.5,188.5C 116.167,188.5 117.833,188.5 119.5,188.5C 115.702,189.483 111.702,189.817 107.5,189.5C 107.5,168.833 107.5,148.167 107.5,127.5 Z"/></g>
<g><path style="opacity:1" fill="#f4f5f3" d="M 138.5,182.5 C 138.062,182.565 137.728,182.399 137.5,182C 140.937,179.254 142.604,175.921 142.5,172C 140.703,171.769 139.036,170.936 137.5,169.5C 135.418,165.663 133.751,161.663 132.5,157.5C 135.798,155.495 138.798,152.995 141.5,150C 142.833,149.333 144.167,149.333 145.5,150C 150.9,155.4 156.233,160.733 161.5,166C 155.631,173.941 147.965,179.441 138.5,182.5 Z"/></g>
<g><path style="opacity:1" fill="#405008" d="M 92.5,150.5 C 93.9573,152.242 95.124,154.242 96,156.5C 98.2509,167.351 99.4176,178.351 99.5,189.5C 97.901,189.768 96.5676,189.434 95.5,188.5C 96.5,188.5 97.5,188.5 98.5,188.5C 98.4151,182.217 97.4151,176.217 95.5,170.5C 95.5,169.5 95.5,168.5 95.5,167.5C 95.0847,162.759 94.2513,158.093 93,153.5C 92.3292,152.748 91.4959,152.414 90.5,152.5C 90.8333,151.5 91.5,150.833 92.5,150.5 Z"/></g>
<g><path style="opacity:1" fill="#efe8cb" d="M 80.5,154.5 C 81.8717,155.512 83.205,156.512 84.5,157.5C 83.741,159.436 82.741,161.269 81.5,163C 83.1294,165.615 82.796,167.782 80.5,169.5C 80.6968,164.32 80.6968,159.32 80.5,154.5 Z"/></g>
<g><path style="opacity:1" fill="#d47708" d="M 89.5,154.5 C 90.7498,154.577 91.5831,155.244 92,156.5C 92.115,160.614 93.2817,164.281 95.5,167.5C 95.5,168.5 95.5,169.5 95.5,170.5C 95.6471,176.233 96.3137,181.9 97.5,187.5C 95.8008,187.66 94.1341,187.494 92.5,187C 91.8366,185.482 90.8366,184.315 89.5,183.5C 87.6739,178.511 85.8405,173.511 84,168.5C 83.1841,169.823 82.0174,170.489 80.5,170.5C 80.5,170.167 80.5,169.833 80.5,169.5C 82.796,167.782 83.1294,165.615 81.5,163C 82.741,161.269 83.741,159.436 84.5,157.5C 86.4113,156.925 88.078,155.925 89.5,154.5 Z"/></g>
<g><path style="opacity:1" fill="#aa791b" d="M 90.5,152.5 C 91.4959,152.414 92.3292,152.748 93,153.5C 94.2513,158.093 95.0847,162.759 95.5,167.5C 93.2817,164.281 92.115,160.614 92,156.5C 91.5831,155.244 90.7498,154.577 89.5,154.5C 89.8333,153.833 90.1667,153.167 90.5,152.5 Z"/></g>
<g><path style="opacity:1" fill="#d8f2f1" d="M 131.5,157.5 C 131.833,157.5 132.167,157.5 132.5,157.5C 133.751,161.663 135.418,165.663 137.5,169.5C 139.036,170.936 140.703,171.769 142.5,172C 142.604,175.921 140.937,179.254 137.5,182C 137.728,182.399 138.062,182.565 138.5,182.5C 137.486,183.674 136.153,184.34 134.5,184.5C 136.355,181.804 138.021,178.971 139.5,176C 137.72,173.216 135.553,170.716 133,168.5C 132.51,167.207 132.343,165.873 132.5,164.5C 133.097,164.265 133.43,163.765 133.5,163C 132.144,161.433 131.477,159.6 131.5,157.5 Z"/></g>
<g><path style="opacity:1" fill="#0fa79c" d="M 122.5,150.5 C 124.782,153.122 127.115,155.788 129.5,158.5C 130.183,158.137 130.85,157.804 131.5,157.5C 131.477,159.6 132.144,161.433 133.5,163C 133.43,163.765 133.097,164.265 132.5,164.5C 130.63,171.774 127.963,178.774 124.5,185.5C 122.94,185.519 121.44,185.852 120,186.5C 118.831,185.991 117.998,185.158 117.5,184C 117.955,181.688 118.955,179.688 120.5,178C 119.884,176.6 119.551,175.1 119.5,173.5C 121.246,166.275 122.246,158.941 122.5,151.5C 122.5,151.167 122.5,150.833 122.5,150.5 Z"/></g>
<g><path style="opacity:1" fill="#e8e1c8" d="M 78.5,171.5 C 77.9524,173.394 76.9524,175.06 75.5,176.5C 76.9308,179.039 78.5975,181.372 80.5,183.5C 77.279,183.104 74.6123,181.771 72.5,179.5C 74.369,177.365 75.0356,174.698 74.5,171.5C 75.8333,171.5 77.1667,171.5 78.5,171.5 Z"/></g>
<g><path style="opacity:1" fill="#138f87" d="M 132.5,164.5 C 132.343,165.873 132.51,167.207 133,168.5C 135.553,170.716 137.72,173.216 139.5,176C 138.021,178.971 136.355,181.804 134.5,184.5C 131.272,185.546 127.939,186.212 124.5,186.5C 124.5,186.167 124.5,185.833 124.5,185.5C 127.963,178.774 130.63,171.774 132.5,164.5 Z"/></g>
<g><path style="opacity:1" fill="#65b57e" d="M 109.5,128.5 C 113.326,132.802 117.159,137.135 121,141.5C 122.289,144.351 122.789,147.351 122.5,150.5C 122.5,150.833 122.5,151.167 122.5,151.5C 119.582,163.992 116.915,176.325 114.5,188.5C 112.5,188.5 110.5,188.5 108.5,188.5C 108.17,168.326 108.503,148.326 109.5,128.5 Z"/></g>
<g><path style="opacity:1" fill="#a85708" d="M 89.5,183.5 C 88.8166,185.176 87.4832,185.843 85.5,185.5C 83.597,185.204 81.9303,184.537 80.5,183.5C 78.5975,181.372 76.9308,179.039 75.5,176.5C 76.9524,175.06 77.9524,173.394 78.5,171.5C 79.1667,171.167 79.8333,170.833 80.5,170.5C 82.0174,170.489 83.1841,169.823 84,168.5C 85.8405,173.511 87.6739,178.511 89.5,183.5 Z"/></g>
<g><path style="opacity:1" fill="#a86f1a" d="M 95.5,170.5 C 97.4151,176.217 98.4151,182.217 98.5,188.5C 97.5,188.5 96.5,188.5 95.5,188.5C 91.8379,188.277 88.5046,187.277 85.5,185.5C 87.4832,185.843 88.8166,185.176 89.5,183.5C 90.8366,184.315 91.8366,185.482 92.5,187C 94.1341,187.494 95.8008,187.66 97.5,187.5C 96.3137,181.9 95.6471,176.233 95.5,170.5 Z"/></g>
<g><path style="opacity:1" fill="#27a58b" d="M 122.5,151.5 C 122.246,158.941 121.246,166.275 119.5,173.5C 119.551,175.1 119.884,176.6 120.5,178C 118.955,179.688 117.955,181.688 117.5,184C 117.998,185.158 118.831,185.991 120,186.5C 121.44,185.852 122.94,185.519 124.5,185.5C 124.5,185.833 124.5,186.167 124.5,186.5C 123.365,188.213 121.698,188.88 119.5,188.5C 117.833,188.5 116.167,188.5 114.5,188.5C 116.915,176.325 119.582,163.992 122.5,151.5 Z"/></g>
</svg>
