<?xml version="1.0" encoding="UTF-8"?>
<!DOCTYPE svg PUBLIC "-//W3C//DTD SVG 1.1//EN" "http://www.w3.org/Graphics/SVG/1.1/DTD/svg11.dtd">
<svg xmlns="http://www.w3.org/2000/svg" version="1.1" width="370px" height="328px" style="shape-rendering:geometricPrecision; text-rendering:geometricPrecision; image-rendering:optimizeQuality; fill-rule:evenodd; clip-rule:evenodd" xmlns:xlink="http://www.w3.org/1999/xlink">
<g><path style="opacity:1" fill="#1f6a32" d="M -0.5,-0.5 C 122.833,-0.5 246.167,-0.5 369.5,-0.5C 369.5,108.833 369.5,218.167 369.5,327.5C 246.167,327.5 122.833,327.5 -0.5,327.5C -0.5,218.167 -0.5,108.833 -0.5,-0.5 Z"/></g>
<g><path style="opacity:1" fill="#1a6a32" d="M 96.5,63.5 C 149.167,63.5 201.833,63.5 254.5,63.5C 254.429,134.881 254.429,206.548 254.5,278.5C 201.833,278.5 149.167,278.5 96.5,278.5C 96.5,206.833 96.5,135.167 96.5,63.5 Z"/></g>
<g><path style="opacity:1" fill="#f6f7f6" d="M 153.5,205.5 C 154.557,210.298 155.557,215.465 156.5,221C 156.122,222.635 155.456,224.135 154.5,225.5C 153.808,224.975 153.308,224.308 153,223.5C 151.806,225.623 151.14,227.957 151,230.5C 149.871,232.141 148.371,233.141 146.5,233.5C 127.597,222.411 115.764,206.077 111,184.5C 104.091,142.818 119.591,112.651 157.5,94C 181.773,85.3096 205.106,87.3096 227.5,100C 232.292,102.961 236.625,106.461 240.5,110.5C 234.393,117.104 228.226,123.438 222,129.5C 202.034,114.375 180.867,112.542 158.5,124C 133.884,144.834 129.717,169.334 146,197.5C 148.705,200.036 151.205,202.703 153.5,205.5 Z"/></g>
<g><path style="opacity:1" fill="#125011" d="M 185.5,179.5 C 185.5,201.5 185.5,223.5 185.5,245.5C 183.833,245.5 182.167,245.5 180.5,245.5C 180.611,244.883 180.944,244.383 181.5,244C 179.467,240.024 177.801,235.858 176.5,231.5C 175.133,225.401 174.133,219.234 173.5,213C 173.392,211.319 172.725,210.152 171.5,209.5C 171.167,209.5 170.833,209.5 170.5,209.5C 170.5,208.833 170.5,208.167 170.5,207.5C 170.737,206.209 170.404,205.209 169.5,204.5C 169.211,201.351 169.711,198.351 171,195.5C 174.96,189.373 179.793,184.04 185.5,179.5 Z"/></g>
<g><path style="opacity:1" fill="#65b57e" d="M 187.5,180.5 C 192.123,186.294 196.956,191.961 202,197.5C 202.497,199.81 202.663,202.143 202.5,204.5C 200.438,212.649 198.771,221.149 197.5,230C 198.71,231.868 198.21,233.368 196,234.5C 195.498,237.513 194.998,240.513 194.5,243.5C 194.5,243.833 194.5,244.167 194.5,244.5C 191.833,244.5 189.167,244.5 186.5,244.5C 186.169,222.993 186.503,201.66 187.5,180.5 Z"/></g>
<g><path style="opacity:1" fill="#8a732e" d="M 169.5,204.5 C 170.404,205.209 170.737,206.209 170.5,207.5C 169.298,206.595 167.964,206.595 166.5,207.5C 167.167,206.167 168.167,205.167 169.5,204.5 Z"/></g>
<g><path style="opacity:1" fill="#f3f6f3" d="M 220.5,237.5 C 216.867,237.557 216.7,236.557 220,234.5C 220.977,232.26 221.477,229.927 221.5,227.5C 218.09,227.616 216.756,225.95 217.5,222.5C 216.167,222.5 214.833,222.5 213.5,222.5C 214.291,220.309 214.291,218.309 213.5,216.5C 212.058,215.18 211.392,213.514 211.5,211.5C 215.919,208.872 220.086,205.872 224,202.5C 230.664,208.331 237.164,214.331 243.5,220.5C 237.058,227.881 229.392,233.548 220.5,237.5 Z"/></g>
<g><path style="opacity:1" fill="#3f874f" d="M 185.5,179.5 C 186.492,179.328 187.158,179.662 187.5,180.5C 186.503,201.66 186.169,222.993 186.5,244.5C 189.167,244.5 191.833,244.5 194.5,244.5C 195.833,244.5 197.167,244.5 198.5,244.5C 194.366,245.485 190.032,245.818 185.5,245.5C 185.5,223.5 185.5,201.5 185.5,179.5 Z"/></g>
<g><path style="opacity:1" fill="#d87502" d="M 167.5,239.5 C 165.835,235.644 164.169,231.644 162.5,227.5C 163.289,227.217 163.956,226.717 164.5,226C 164.286,221.837 163.619,217.837 162.5,214C 165.112,213.259 166.778,214.259 167.5,217C 164.459,220.884 165.293,223.717 170,225.5C 170.333,225.167 170.667,224.833 171,224.5C 171.184,228.65 172.018,232.65 173.5,236.5C 172.895,238.481 171.895,238.815 170.5,237.5C 169.261,237.942 168.261,238.609 167.5,239.5 Z"/></g>
<g><path style="opacity:1" fill="#12a69d" d="M 203.5,206.5 C 205.67,207.838 207.336,209.672 208.5,212C 209.577,212.47 210.577,212.303 211.5,211.5C 211.392,213.514 212.058,215.18 213.5,216.5C 212.85,218.435 212.517,220.435 212.5,222.5C 209.169,228.822 205.835,235.155 202.5,241.5C 201.784,241.217 200.951,240.884 200,240.5C 199.187,236.355 200.02,232.355 202.5,228.5C 201.624,223.727 201.29,218.893 201.5,214C 201.3,211.134 201.967,208.634 203.5,206.5 Z"/></g>
<g><path style="opacity:1" fill="#caeceb" d="M 213.5,216.5 C 214.291,218.309 214.291,220.309 213.5,222.5C 214.833,222.5 216.167,222.5 217.5,222.5C 216.756,225.95 218.09,227.616 221.5,227.5C 221.477,229.927 220.977,232.26 220,234.5C 216.7,236.557 216.867,237.557 220.5,237.5C 219.07,238.537 217.403,239.204 215.5,239.5C 216.41,236.599 217.744,233.932 219.5,231.5C 217.558,228.221 215.224,225.221 212.5,222.5C 212.517,220.435 212.85,218.435 213.5,216.5 Z"/></g>
<g><path style="opacity:1" fill="#efead6" d="M 153.5,205.5 C 156.167,207.5 158.833,209.5 161.5,211.5C 160.489,213.506 159.489,215.506 158.5,217.5C 159.046,219.135 159.38,220.801 159.5,222.5C 157.35,224.76 155.183,227.093 153,229.5C 152.333,230.833 152.333,232.167 153,233.5C 154.372,234.91 155.205,236.577 155.5,238.5C 152.008,237.59 149.008,235.924 146.5,233.5C 148.371,233.141 149.871,232.141 151,230.5C 151.14,227.957 151.806,225.623 153,223.5C 153.308,224.308 153.808,224.975 154.5,225.5C 155.456,224.135 156.122,222.635 156.5,221C 155.557,215.465 154.557,210.298 153.5,205.5 Z"/></g>
<g><path style="opacity:1" fill="#a67618" d="M 170.5,209.5 C 170.833,209.5 171.167,209.5 171.5,209.5C 173.155,217.41 174.155,225.41 174.5,233.5C 173.778,233.082 173.278,232.416 173,231.5C 171.839,224.194 171.006,216.861 170.5,209.5 Z"/></g>
<g><path style="opacity:1" fill="#d1790b" d="M 170.5,207.5 C 170.5,208.167 170.5,208.833 170.5,209.5C 171.006,216.861 171.839,224.194 173,231.5C 173.278,232.416 173.778,233.082 174.5,233.5C 175.434,234.568 175.768,235.901 175.5,237.5C 175.5,239.5 175.5,241.5 175.5,243.5C 173.833,243.5 172.167,243.5 170.5,243.5C 169.833,243.5 169.167,243.5 168.5,243.5C 168.167,242.167 167.833,240.833 167.5,239.5C 168.261,238.609 169.261,237.942 170.5,237.5C 171.895,238.815 172.895,238.481 173.5,236.5C 172.018,232.65 171.184,228.65 171,224.5C 170.667,224.833 170.333,225.167 170,225.5C 165.293,223.717 164.459,220.884 167.5,217C 166.778,214.259 165.112,213.259 162.5,214C 163.619,217.837 164.286,221.837 164.5,226C 163.956,226.717 163.289,227.217 162.5,227.5C 161.935,225.58 160.935,223.913 159.5,222.5C 159.38,220.801 159.046,219.135 158.5,217.5C 159.489,215.506 160.489,213.506 161.5,211.5C 163.749,210.92 165.415,209.587 166.5,207.5C 167.964,206.595 169.298,206.595 170.5,207.5 Z"/></g>
<g><path style="opacity:1" fill="#118e86" d="M 212.5,222.5 C 215.224,225.221 217.558,228.221 219.5,231.5C 217.744,233.932 216.41,236.599 215.5,239.5C 211.823,240.69 208.156,242.19 204.5,244C 202.527,244.495 200.527,244.662 198.5,244.5C 197.167,244.5 195.833,244.5 194.5,244.5C 194.5,244.167 194.5,243.833 194.5,243.5C 197.698,244.036 200.365,243.369 202.5,241.5C 205.835,235.155 209.169,228.822 212.5,222.5 Z"/></g>
<g><path style="opacity:1" fill="#a7580b" d="M 159.5,222.5 C 160.935,223.913 161.935,225.58 162.5,227.5C 164.169,231.644 165.835,235.644 167.5,239.5C 167.833,240.833 168.167,242.167 168.5,243.5C 163.909,242.279 159.576,240.612 155.5,238.5C 155.205,236.577 154.372,234.91 153,233.5C 152.333,232.167 152.333,230.833 153,229.5C 155.183,227.093 157.35,224.76 159.5,222.5 Z"/></g>
<g><path style="opacity:1" fill="#314f0b" d="M 171.5,209.5 C 172.725,210.152 173.392,211.319 173.5,213C 174.133,219.234 175.133,225.401 176.5,231.5C 177.801,235.858 179.467,240.024 181.5,244C 180.944,244.383 180.611,244.883 180.5,245.5C 177.941,245.802 175.607,245.468 173.5,244.5C 174.978,244.762 176.311,244.429 177.5,243.5C 176.95,241.343 176.283,239.343 175.5,237.5C 175.768,235.901 175.434,234.568 174.5,233.5C 174.155,225.41 173.155,217.41 171.5,209.5 Z"/></g>
<g><path style="opacity:1" fill="#13a795" d="M 202.5,204.5 C 202.833,205.167 203.167,205.833 203.5,206.5C 201.967,208.634 201.3,211.134 201.5,214C 201.29,218.893 201.624,223.727 202.5,228.5C 200.02,232.355 199.187,236.355 200,240.5C 200.951,240.884 201.784,241.217 202.5,241.5C 200.365,243.369 197.698,244.036 194.5,243.5C 194.998,240.513 195.498,237.513 196,234.5C 198.21,233.368 198.71,231.868 197.5,230C 198.771,221.149 200.438,212.649 202.5,204.5 Z"/></g>
<g><path style="opacity:1" fill="#997524" d="M 175.5,237.5 C 176.283,239.343 176.95,241.343 177.5,243.5C 176.311,244.429 174.978,244.762 173.5,244.5C 172.209,244.737 171.209,244.404 170.5,243.5C 172.167,243.5 173.833,243.5 175.5,243.5C 175.5,241.5 175.5,239.5 175.5,237.5 Z"/></g>
</svg>
